<svg xmlns="http://www.w3.org/2000/svg" viewBox="0 0 20 20"><defs><style>.cls-1{fill:#10d58e;}.cls-2{fill:#fff;}</style></defs><title>electricidad</title><g id="Layer_2" data-name="Layer 2"><g id="Layer_1-2" data-name="Layer 1"><rect class="cls-1" width="20" height="20" rx="4" ry="4"/><path class="cls-2" d="M13.93,7.81a.23.23,0,0,0-.21-.14H11l2.72-4.29a.25.25,0,0,0,0-.24.24.24,0,0,0-.2-.12H9.77a.23.23,0,0,0-.21.13l-3.49,7a.22.22,0,0,0,0,.22.24.24,0,0,0,.2.12H8.67L6.06,16.66a.24.24,0,0,0,.1.29.24.24,0,0,0,.12,0,.27.27,0,0,0,.18-.08L13.9,8.06a.23.23,0,0,0,0-.25Z"/></g></g></svg>