<svg xmlns="http://www.w3.org/2000/svg" xmlns:xlink="http://www.w3.org/1999/xlink" viewBox="0 0 146.85 223.98"><defs><style>.cls-1{fill:#a3724f;}.cls-2{fill:#d88916;}.cls-3{opacity:0.4;fill:url(#radial-gradient);}.cls-10,.cls-12,.cls-3{isolation:isolate;}.cls-4{fill:url(#linear-gradient);}.cls-5{fill:url(#linear-gradient-2);}.cls-6{fill:url(#linear-gradient-3);}.cls-7{fill:url(#linear-gradient-4);}.cls-8{fill:url(#linear-gradient-5);}.cls-9{fill:url(#linear-gradient-6);}.cls-10,.cls-12{opacity:0.8;}.cls-10{fill:url(#linear-gradient-7);stroke:url(#linear-gradient-8);}.cls-11{fill:url(#linear-gradient-9);}.cls-12,.cls-13,.cls-29{fill:#fff;}.cls-14{fill:#1d1d1b;}.cls-15{fill:#49271d;}.cls-16{fill:#aeaeae;}.cls-17{fill:#787878;}.cls-18{fill:#a9a9a9;}.cls-19{fill:#737373;}.cls-20{fill:#f6b42f;}.cls-21{fill:#df9c1f;}.cls-22{fill:#f4622f;}.cls-23{fill:#dd4c1f;}.cls-24{fill:url(#radial-gradient-2);}.cls-25{fill:#754559;}.cls-26{fill:#ffcd2c;}.cls-27{fill:#ffe14e;}.cls-28{fill:#ffe536;}.cls-29{opacity:0.5;}.cls-30{fill:#e8a81a;}</style><radialGradient id="radial-gradient" cx="-310.51" cy="799.84" r="0.45" gradientTransform="matrix(0, -27, -137.88, 0, 110356.24, -8173.01)" gradientUnits="userSpaceOnUse"><stop offset="0"/><stop offset="1" stop-opacity="0"/></radialGradient><linearGradient id="linear-gradient" x1="-260.84" y1="741.41" x2="-259" y2="742.18" gradientTransform="matrix(7.27, 3.64, 3.25, -6.48, -473.71, 5888.81)" gradientUnits="userSpaceOnUse"><stop offset="0" stop-color="#f2cbaf"/><stop offset="0.99" stop-color="#b08875"/></linearGradient><linearGradient id="linear-gradient-2" x1="-255.2" y1="748.23" x2="-253.4" y2="748.86" gradientTransform="matrix(6.73, 3.37, 3.56, -7.11, -856.58, 6316.85)" xlink:href="#linear-gradient"/><linearGradient id="linear-gradient-3" x1="-260.76" y1="737.42" x2="-262.63" y2="735.6" gradientTransform="matrix(7.4, 3.71, 2.6, -5.19, 98.97, 4814.52)" xlink:href="#linear-gradient"/><linearGradient id="linear-gradient-4" x1="-278.53" y1="787.76" x2="-280.55" y2="787.05" gradientTransform="matrix(20.15, 10.1, 14.3, -28.54, -5529.85, 25479.64)" xlink:href="#linear-gradient"/><linearGradient id="linear-gradient-5" x1="-280.38" y1="787.11" x2="-282.4" y2="786.39" gradientTransform="matrix(-20.15, 10.1, -14.3, -28.54, 5630.12, 25479.64)" xlink:href="#linear-gradient"/><linearGradient id="linear-gradient-6" x1="-286.5" y1="794.2" x2="-288.12" y2="793.47" gradientTransform="matrix(43.86, 21.98, 24.29, -48.46, -6599.24, 44862.5)" xlink:href="#linear-gradient"/><linearGradient id="linear-gradient-7" x1="10567.01" y1="-8868.09" x2="10566.94" y2="-8868.12" gradientTransform="matrix(0.02, 0.01, 0.02, -0.04, 19.23, -326.75)" gradientUnits="userSpaceOnUse"><stop offset="0" stop-color="#7ed240"/><stop offset="0.99" stop-color="#e5eb76"/></linearGradient><linearGradient id="linear-gradient-8" x1="10567.45" y1="-8867.87" x2="10566.56" y2="-8868.31" gradientTransform="matrix(0.02, 0.01, 0.02, -0.04, 19.23, -326.75)" gradientUnits="userSpaceOnUse"><stop offset="0" stop-color="#afdff9"/><stop offset="1" stop-color="#d4ebf0"/></linearGradient><linearGradient id="linear-gradient-9" x1="-284.42" y1="791.18" x2="-286.11" y2="790.43" gradientTransform="matrix(33.63, 16.85, 18.87, -37.66, -5258.51, 34754.65)" xlink:href="#linear-gradient"/><radialGradient id="radial-gradient-2" cx="73.5" cy="171.53" r="26.25" gradientTransform="matrix(0, -1, 2.07, 0.01, -281.74, 243.57)" gradientUnits="userSpaceOnUse"><stop offset="0.22" stop-color="#f2cbaf"/><stop offset="0.99" stop-color="#b08875"/></radialGradient></defs><title>personaje</title><g id="Layer_2" data-name="Layer 2"><g id="Layer_1-2" data-name="Layer 1"><rect class="cls-1" x="63.3" y="187.23" width="21.98" height="20.86"/><path class="cls-2" d="M36.8,45.3C30.87,53.12,27.46,60.38,28.71,65,30.33,70.92,39,69.3,74.29,67.42s50.43-12.86,43.14-31.29C113.08,25.12,36.8,45.3,36.8,45.3Z"/><ellipse id="Oval-124" class="cls-3" cx="73.42" cy="214.31" rx="73.42" ry="9.67"/><path id="Shape" class="cls-4" d="M45.78,142.5s-13.37-9.84-6.43-15c4.79-3.58,10.94,2.76,13.81,5.39"/><path id="Shape-2" data-name="Shape" class="cls-5" d="M97.63,141s13.58-5.69,7.92-12.26c-3.91-4.53-9.59-.7-13,1.24"/><path id="Shape-3" data-name="Shape" class="cls-6" d="M70.28,23.72s4.51-6.32,10.5-6.86a41.72,41.72,0,0,0-3.37,5s4-4,7.6-3c0,0-4.25,3-5.42,5.15,0,0,4.61-3.37,9.31-2.64.41.06-4.91,2.25-6,4.42"/><path id="Shape-4" data-name="Shape" class="cls-7" d="M108.07,164.33s16.92-2.26,16.3,15c-.41,11.33-22.91,14.6-22.23,20.73H114s4.83.44,4.83,6.17-6.44,4.91-6.44,4.91H73.5v-8Z"/><path id="Shape-5" data-name="Shape" class="cls-8" d="M73.5,203.11v8H34.63s-6.44.82-6.44-4.91S33,200.05,33,200.05H44.86c.68-6.13-21.82-9.4-22.23-20.73-.62-17.25,16.3-15,16.3-15Z"/><path id="Shape-6" data-name="Shape" class="cls-9" d="M34.51,73.86c0-31.22,17.54-50.36,39.17-50.36.43,0,.85,0,1.28,0,.64,0,1.28.08,1.91.16C97,26,119.56,45,112.84,73.87c-.62,2.66-2.24,5.11-2.38,7.06-.31,4.26,14,1.57,13,5.09-.8,2.88-12,31.67-48.16,17.63-4-1.57,28,.72,26.85,3C95,121,86.83,130.39,73.67,130.39c-21.62,0-39.16-25.31-39.16-56.53Z"/><path id="Shape-7" data-name="Shape" class="cls-10" d="M99.54,149.8l-.08.06"/><path id="Shape-8" data-name="Shape" class="cls-11" d="M90,124.05l13.26,21.67h0a35.49,35.49,0,1,1-59.6,0h0L55.35,124"/><path id="Shape-9" data-name="Shape" class="cls-12" d="M80,124.14,95.82,150h0a26.55,26.55,0,1,1-44.58,0h0l16.41-26.58Z"/><ellipse id="Oval" class="cls-13" cx="77.96" cy="66.35" rx="10.55" ry="15.13"/><ellipse id="Oval-2" data-name="Oval" class="cls-13" cx="101.03" cy="64.74" rx="10.55" ry="15.12"/><ellipse id="Oval-3" data-name="Oval" class="cls-14" cx="77.83" cy="70.3" rx="8.67" ry="11.19"/><ellipse id="Oval-4" data-name="Oval" class="cls-14" cx="101.13" cy="68.81" rx="8.67" ry="11.18"/><path id="Shape-10" data-name="Shape" class="cls-12" d="M117.6,84.88s-38.43,4.58-45.15,17.05c-2.61,4.84-4.87,14.57-4.83,21.47l12.33.72s21.47-9.91,22.24-17.75c0,0,10.27-1,18.7-14.76,0,0-3.37-2.65-3.29-6.73Z"/><path id="Shape-11" data-name="Shape" class="cls-15" d="M78.74,103.27c6.9,7.51,15.9,3.16,15.9,3.16s-11.79-.55-15.93-3.13"/><path id="Shape-12" data-name="Shape" class="cls-15" d="M126.1,86.8s.72-2.15-3.44-2.44-5.8.31-5.16,1.72c.71,1.58,2,6.17,4,5.31s4.59-3.73,4.59-4.59Z"/><path class="cls-16" d="M72.08,175.51c.07.34.39,2.71.39,2.71a1.59,1.59,0,0,0,.88-.81,4.23,4.23,0,0,0,.37-3.58,3.23,3.23,0,0,0-2-1.84,4.06,4.06,0,0,1-2-1.72l-2.24-5.18h0l-2.87-6.62c-.62-1.41-.88-2.24-.48-3.26a3.36,3.36,0,0,0,.35-2.68c-.34-1.19-1.48-2.81-2.39-2.77,0,0,.3,2,.38,2.49s-.12.9-.84,1.24a3.16,3.16,0,0,1-2.12.11c-.37-.16-.68-.31-.75-.65s-.39-2.71-.39-2.71a1.56,1.56,0,0,0-.87.81,4.19,4.19,0,0,0-.38,3.58,3.2,3.2,0,0,0,2,1.83,4.1,4.1,0,0,1,2,1.73L65,167h0l1.29,3c.61,1.41.87,2.24.47,3.26a3.36,3.36,0,0,0-.35,2.68c.34,1.19,1.48,2.81,2.39,2.77,0,0-.3-2-.37-2.49s.11-.9.83-1.24a3.1,3.1,0,0,1,2.12-.11C71.71,175,72,175.16,72.08,175.51Z"/><path class="cls-17" d="M64.45,152.53a3.84,3.84,0,0,0-.14-.4c-.49-1-1.37-2.07-2.1-2,0,0,.29,2,.37,2.49s-.12.9-.84,1.24a3.1,3.1,0,0,1-2.12.11c-.37-.16-.67-.3-.74-.65,0,0,0,0,0-.06a.58.58,0,0,1-.14-.27c0-.26-.24-1.66-.34-2.34a1.67,1.67,0,0,0-.78.77,4.31,4.31,0,0,0-.44,3.42,3.2,3.2,0,0,0,1.9,1.66l.45.23a5.73,5.73,0,0,0,2.71-.3,4.53,4.53,0,0,0,1.77-.88c0-.1.06-.2.1-.3A3.36,3.36,0,0,0,64.45,152.53Z"/><path class="cls-16" d="M64.45,152.53c-.34-1.19-1.48-2.81-2.39-2.77,0,0,.3,2,.38,2.49s-.12.9-.84,1.24a3.16,3.16,0,0,1-2.12.11c-.37-.16-.68-.31-.75-.65s-.39-2.71-.39-2.71a1.56,1.56,0,0,0-.87.81,4.19,4.19,0,0,0-.38,3.58,4.12,4.12,0,0,0,.44.76c1.35,1.11,2.4,1.31,4.56.67a3.68,3.68,0,0,0,2.25-1.44A2.81,2.81,0,0,0,64.45,152.53Z"/><path class="cls-17" d="M66.36,175.93c0,.13.09.26.14.39.49,1,1.37,2.08,2.1,2,0,0-.29-2-.37-2.48s.12-.9.84-1.24a3.17,3.17,0,0,1,2.12-.12c.37.16.67.31.74.65a.64.64,0,0,1,0,.07.57.57,0,0,1,.13.27c0,.25.25,1.66.34,2.34a1.71,1.71,0,0,0,.78-.78,4.24,4.24,0,0,0,.44-3.41,3.27,3.27,0,0,0-1.9-1.67c-.11-.05-.27-.12-.45-.22a5.71,5.71,0,0,0-2.71.29,4.52,4.52,0,0,0-1.77.89c0,.1-.06.2-.1.3A3.36,3.36,0,0,0,66.36,175.93Z"/><path class="cls-16" d="M66.36,175.93c.34,1.19,1.48,2.81,2.39,2.77,0,0-.3-2-.37-2.49s.11-.9.83-1.24a3.1,3.1,0,0,1,2.12-.11c.38.16.68.3.75.65s.39,2.71.39,2.71a1.59,1.59,0,0,0,.88-.81,4.23,4.23,0,0,0,.37-3.58,3.38,3.38,0,0,0-.44-.76c-1.35-1.12-2.4-1.31-4.55-.67a3.68,3.68,0,0,0-2.26,1.44A2.81,2.81,0,0,0,66.36,175.93Z"/><path class="cls-18" d="M35.59,97.48l-.6.08h0l-.6.09s.11,3,.18,3.47.32.57.39,1.1L37.69,122,39,121.8,36.28,102c-.07-.53.15-.73.08-1.18S35.59,97.48,35.59,97.48Z"/><path class="cls-19" d="M35,97.56h0l3.38,24.34.66-.1L36.28,102c-.07-.53.15-.73.08-1.18s-.77-3.38-.77-3.38Z"/><path class="cls-20" d="M41.38,123.24l-.23-1.62a.39.39,0,0,0-.44-.34l-4.78.66a.4.4,0,0,0-.34.45l.23,1.62c0,.38,1.13.12,1.29,1.32s-.93,1.28-.85,1.84l1.58,11.4a1.48,1.48,0,0,0,1.67,1.26h0l2.62-.36h0a1.54,1.54,0,0,0,.78-.37,1.46,1.46,0,0,0,.48-1.3l-1.58-11.4c-.07-.56-1.14-.23-1.32-1.54S41.43,123.62,41.38,123.24Z"/><path class="cls-21" d="M40.82,139.65l1.31-.18h0a1.54,1.54,0,0,0,.78-.37,1.46,1.46,0,0,0,.48-1.3l-1.58-11.4c-.07-.56-1.14-.23-1.32-1.54s.94-1.24.89-1.62l-.23-1.62a.39.39,0,0,0-.44-.34l-2.39.33Z"/><path class="cls-20" d="M42.07,138.16h0a.74.74,0,0,1-.83-.63L40,128.19a.72.72,0,0,1,.62-.82h0a.72.72,0,0,1,.83.62l1.3,9.34A.75.75,0,0,1,42.07,138.16Z"/><path class="cls-21" d="M39.27,138.55h0a.75.75,0,0,1-.83-.63l-1.29-9.34a.73.73,0,0,1,.62-.83h0a.74.74,0,0,1,.83.63l1.3,9.34A.75.75,0,0,1,39.27,138.55Z"/><rect class="cls-18" x="84.31" y="153.52" width="2.16" height="3.07" transform="translate(-83.1 209.31) rotate(-79.01)"/><path class="cls-19" d="M86.56,152.83l-1.42-.27-1.55.28A1,1,0,0,1,84,154l.77.15,1.47.29.77.15a1,1,0,0,1,.84-.91Z"/><path class="cls-19" d="M84.16,157.58l1.42.27,1.55-.29a1,1,0,0,1-.44-1.15l-.77-.15L84.45,156l-.78-.15a1,1,0,0,1-.83.91Z"/><path class="cls-18" d="M95.31,155.78c0-2.53-.85-7.37-6.2-8.41h0l-4.2-.82h0c-.63-.12-.67,1.16-2.16.87s-1-1.48-1.42-1.56l-1.84-.36a.45.45,0,0,0-.53.36l-1.05,5.41a.45.45,0,0,0,.36.53l1.84.36c.43.08.54-1.18,1.9-.92s1,1.49,1.67,1.61h0l4.21.82h0c.63.12,1-1.79,2.5-1.5,3.3.64,3.42,2.66,4.17,3.82A.41.41,0,0,0,95.31,155.78Z"/><path class="cls-19" d="M84.82,146.54a6.19,6.19,0,0,0-1.34,3,8.38,8.38,0,0,0-.11,1.66,6.88,6.88,0,0,0,.22,1.63l.13-1.62q.07-.81.21-1.59a14.08,14.08,0,0,1,.36-1.56A11.1,11.1,0,0,1,84.82,146.54Z"/><path class="cls-19" d="M87.88,153.68a6.23,6.23,0,0,0,1.34-3,8.43,8.43,0,0,0,.11-1.66,7.61,7.61,0,0,0-.22-1.64L89,149c0,.53-.12,1.06-.21,1.59s-.21,1-.35,1.56A11.57,11.57,0,0,1,87.88,153.68Z"/><path class="cls-19" d="M81.24,145.85l-.13,1.62c0,.54-.12,1.06-.21,1.59s-.21,1-.35,1.56a13.22,13.22,0,0,1-.53,1.53,6.27,6.27,0,0,0,1.33-3,9.21,9.21,0,0,0,.12-1.66A7.45,7.45,0,0,0,81.24,145.85Z"/><path class="cls-19" d="M91.63,151.86c-2.39-.93-2.94.14-2.94.14s-.34.77-.46,1-.35.7-.35.7c.63.12,1-1.79,2.5-1.5,3.3.64,3.42,2.66,4.17,3.82C94.55,156,93.89,152.74,91.63,151.86Z"/><path class="cls-22" d="M83.79,174.64c.84-4.3,1.27-5.58,2.07-9.7s1.29-7.53,1.29-7.53l-.3-.46-3.57-.69-.45.31S82,159.92,81.2,164s-.85,5.47-1.68,9.77c-.66,3.39-1.78,7-2.69,10.16a2.19,2.19,0,0,0,1.39,2.87l1.89.36a2.17,2.17,0,0,0,2.35-2.13C82.82,181.77,83.13,178,83.79,174.64Z"/><path class="cls-23" d="M85.86,164.94c.8-4.12,1.29-7.53,1.29-7.53l-.3-.46-1.91-.37L79,187l1.08.21a2.17,2.17,0,0,0,2.35-2.13c.36-3.3.67-7,1.33-10.43C84.63,170.34,85.06,169.06,85.86,164.94Z"/><path class="cls-18" d="M69.59,148.31l-2.28,1a.18.18,0,0,1-.24-.18c.15-1,.63-4.36.85-5.63.27-1.5,1.1-1.7,1.1-1.7s2.06,4.6,2.06,4.6l-1.94.87Z"/><path class="cls-19" d="M69,141.83a.69.69,0,0,0-.25.12h0c.36.72,1.16,2.61,1.59,3.63l-2.84,1.28s.55.7,1.12,1.53l-1.56.69v.08a.18.18,0,0,0,.24.18l2.28-1-.45-1,1.94-.87S69.11,141.71,69,141.83Z"/><path class="cls-18" d="M73.11,139.84l1.54,3.44a.68.68,0,0,1-.34.89L68,147a22.46,22.46,0,0,1,2.15,3.25c.53,1.2.79,3.76.57,9.81s-.44,12.41-.43,13.33a2.3,2.3,0,0,0,4.6-.2c0-.85-.2-6.75-.33-8.7s-.18-10.6-.18-12.34.91-3.26,1.85-4.82,1.76-2.48,1.15-3.84S75.3,140.08,73.11,139.84Zm.14,34.84a1.75,1.75,0,1,1,.89-2.32A1.76,1.76,0,0,1,73.25,174.68Z"/><rect class="cls-19" x="70.37" y="147.02" width="3.33" height="3.94" rx="1.52" ry="1.52" transform="translate(-54.63 42.48) rotate(-24.14)"/><rect class="cls-19" x="70.51" y="147.18" width="3.05" height="3.61" rx="1.4" ry="1.4" transform="translate(-54.63 42.48) rotate(-24.14)"/><path class="cls-19" d="M73.19,146.43,74.33,149a12.29,12.29,0,0,1,1-1.89,4.88,4.88,0,0,0,1-2.06Z"/><path class="cls-19" d="M73.32,153.74a1.07,1.07,0,0,0-.74-.32,1,1,0,0,0-.74.31,1.09,1.09,0,0,0-.32.74l-.08,15.25a1.09,1.09,0,0,0,.3.75,1,1,0,0,0,.75.31,1.07,1.07,0,0,0,.43-.09,1.05,1.05,0,0,0,.62-1l.09-15.25A1,1,0,0,0,73.32,153.74Zm.1.74-.08,15.25a.86.86,0,0,1-.5.77.86.86,0,0,1-1.2-.78l.09-15.25a.84.84,0,0,1,.5-.77.87.87,0,0,1,1,.18A.79.79,0,0,1,73.42,154.48Z"/><path class="cls-18" d="M72.29,146.64l-.08,0-.34.15,2.25,3.27a.55.55,0,0,0,0-.28l-.75-1.64Z"/><path class="cls-18" d="M70,147.85a.45.45,0,0,0,0,.32l.66,1.47,1.16,1.69,0,0,.37-.16Z"/><polygon class="cls-18" points="70.67 147.35 70.26 147.54 72.62 150.97 73.03 150.78 70.67 147.35"/><polygon class="cls-18" points="71.48 146.99 71.07 147.18 73.42 150.61 73.83 150.42 71.48 146.99"/><path id="Shape-13" data-name="Shape" class="cls-24" d="M100.1,163s.74,10.69-6.4,19.09a26.9,26.9,0,0,1-20.24,9.43c-9.74.2-17.62-6.08-21.29-10.48-5.9-7.07-5.25-18.25-5.25-18.77a2.75,2.75,0,0,1-1-2c-.07-1.36,1.24-2.94,1.86-2.44,4.13,3.35,12.19,9.67,25.89,9.91,0,0,15.14.24,25.68-9.68.73-.68,4.07,2.45.75,4.92Z"/><path class="cls-2" d="M47.19,12.41C48.13,8.09,51.44,1.75,62,.88s10.86,7.62,9.91,9.17S68,15,68,15l-9.91,2.22Z"/><path class="cls-25" d="M35.17,63.93c0,1.47-2.25-1.13-2.63-2.28-.54-1.63-1.3-3.15-.12-4.39C33.05,56.59,48.33,41,89.62,41c18,0,23.42,1.68,25.14,7.25s-1.7,10.24-1.55,9.33a10.8,10.8,0,0,0-1.63-6.87s-1-3.49-22-3.49C51,47.22,37.07,61.4,36.93,61.54,36.32,62.18,35.06,63.14,35.17,63.93Z"/><path class="cls-26" d="M26.36,41.84c0,.47,0,.93,0,1.41,0,2.19.16,4.59.35,7,.28,3.45.67,6.84,1.11,9.36s1,4.23,1.45,4.1l.09,0a19.27,19.27,0,0,1,3.53-4.25c.16-.16.32-.3.48-.45l.4-.36.26-.21.73-.6c.73-.58,1.5-1.14,2.33-1.7.64-.46,1.3-.89,2-1.33l.75-.45a59.5,59.5,0,0,1,7.83-3.88c.35-.15.72-.31,1.09-.44.71-.29,1.45-.56,2.19-.83,1.15-.41,2.31-.8,3.49-1.15.78-.23,1.56-.47,2.35-.69,2.37-.66,4.85-1.27,7.41-1.81,4.26-.92,8.73-1.67,13.3-2.23,1.83-.22,3.68-.42,5.54-.58.93-.09,1.86-.17,2.8-.22,3.73-.26,7.51-.4,11.26-.4.83,0,1.61,0,2.37,0h.13c.71,0,1.37,0,2,0l.85,0,3.21-.08,1.15,0h.06l1.1,0h.29l.72,0h1.53a12.22,12.22,0,0,1,4.07.48,6.17,6.17,0,0,1,1.61.88.77.77,0,0,0,.47-.21c1.58-1.49,1.54-10-2.48-19.09-.11-.25-.23-.5-.34-.74-.22-.5-.46-1-.7-1.46C109.77,14.9,104.82,9.8,95,6.09l-.66-.24a13.35,13.35,0,0,0-5-3.5C84.94.87,82.19.59,76.41.67c-.94,0-1.86,0-2.84.09l-.43,0c-2.57.19-5,.46-7.34.8a1.88,1.88,0,0,1-.22,0c-1.18.18-2.34.41-3.45.65a57.78,57.78,0,0,0-5.8,1.5,54,54,0,0,0-7.17,2.8c-.74.36-1.47.73-2.18,1.12a40.93,40.93,0,0,0-11.53,9.13l-.06.07a36.88,36.88,0,0,0-7.76,14.77A40.72,40.72,0,0,0,26.36,41.84Z"/><path class="cls-2" d="M109.94,41.79c-.26.84-.62,1.32-1.07,1.36a6.13,6.13,0,0,0-3.17-1.25c-2.71-.35-7,.16-15.92.16l-8.7-.25c2.16-.17,2.54-10-2.14-20.57-3.06-6.94-11-18-18.18-18.72,1.12-.24,3.64-.7,4.82-.88.09,0,.18-.06.23-.06,2.33-.35,4.76-.61,7.33-.79A43.12,43.12,0,0,1,84.25,3a9.38,9.38,0,0,1,.93.35,37.79,37.79,0,0,1,21.67,20.54C110.27,31.53,110.81,38.84,109.94,41.79Z"/><path class="cls-27" d="M109.91,23.84c-3.53-8-12-17.7-22.43-22.28-.3-.14-.61-.24-.92-.35C82.17-.28,76.49,0,70.72.07c-.94,0-1.87,0-2.84.09-2,.13-4,.48-5.93.72a17.51,17.51,0,0,1,4.58,1.23c6.94,2.89,12.66,12,15.58,18.56,4.68,10.53,4.18,21,2,21.14l8.69.24c13.25,0,16.23-1.09,19.09,1.1C113.94,43,114.3,33.72,109.91,23.84Z"/><path class="cls-26" d="M28.71,64.81a12.23,12.23,0,0,1,.59-1.13,19.21,19.21,0,0,1,3.62-4.29c.16-.16.32-.3.48-.45l.66-.57.73-.6c.74-.58,1.51-1.14,2.33-1.7.65-.45,1.31-.88,2-1.3a61.39,61.39,0,0,1,8.58-4.36L48.8,50,51,49.14c1.15-.41,2.31-.8,3.49-1.15.78-.23,1.56-.47,2.35-.69,2.37-.65,4.85-1.26,7.41-1.81,4.26-.92,8.73-1.67,13.3-2.23,1.83-.22,3.68-.42,5.54-.58.93-.09,1.86-.17,2.8-.22,3.73-.27,7.51-.41,11.26-.41h2.5l2,0,.85,0,3.21-.08,1.15,0h.06l1.1,0h.29l.72,0h1.53a12.22,12.22,0,0,1,4.07.48,5.93,5.93,0,0,1,1.61.89.76.76,0,0,0,.47-.22c1.58-1.49,1.54-10-2.48-19.09-.11-.25-.23-.5-.34-.74-.22-.5-.46-1-.7-1.46-3.44-6.89-8.31-12.06-18.53-15.8l.38.25C104.29,12.2,106.29,28,106.51,32.9c.09,2-10.91.27-43.42,8.22-10.3,2.52-18.69,5.56-24.72,8.8-5.87,3.13-9.51,6.45-10.52,9.66A5.77,5.77,0,0,0,28.71,64.81Z"/><path class="cls-28" d="M137.66,38.2S120.9,42,115.55,43.42c0,0-1.25-.94-5.13-1.82A77.37,77.37,0,0,0,94,40.18c-4.61,0-11.61,1.2-18.06,2.56-8.47,1.76-16,3.82-16,3.82l-.64-4.31S64,39,75.91,36.16c8-1.91,19.27-3.63,34.51-4q3-.07,6.21-.07c14.06,0,19.84.94,20.9,2.3C138,35,137.66,38.2,137.66,38.2Z"/><path class="cls-29" d="M110.42,32.16V41.6A77.37,77.37,0,0,0,94,40.18c-4.61,0-11.61,1.2-18.06,2.56V36.16C83.92,34.25,95.18,32.53,110.42,32.16Z"/><path class="cls-2" d="M116.63,35.33C74,35.33,59.46,46.65,59.46,46.65A214.47,214.47,0,0,1,94,43.41c17.26,0,21.58,3.24,21.58,3.24C125.79,44,159.23,35.33,116.63,35.33Z"/><path class="cls-30" d="M26.36,41.84c0,.47,0,.93,0,1.41,0,2.19.16,4.59.35,7,.28,3.45.67,6.84,1.11,9.36a5.77,5.77,0,0,0,.86,5.23,12.23,12.23,0,0,1,.59-1.13l.09,0a19.27,19.27,0,0,1,3.53-4.25c.16-.16.32-.3.48-.45l.66-.57.73-.6c.74-.58,1.51-1.14,2.33-1.7.65-.45,1.31-.88,2-1.3v0c-.11-.62-.21-1.25-.32-1.89-.16-1-.31-2-.44-2.93-.32-2.21-.58-4.38-.78-6.43-.09-.66-.14-1.27-.19-1.9a49,49,0,0,1,.94-13.85A47.12,47.12,0,0,1,49.16,6.58l.2-.22c-.81.43-1.6.88-2.38,1.34a52.84,52.84,0,0,0-11.53,9.13l-.06.07a36.88,36.88,0,0,0-7.76,14.77A40.72,40.72,0,0,0,26.36,41.84Z"/></g></g></svg>