<svg xmlns="http://www.w3.org/2000/svg" viewBox="0 0 20 20"><defs><style>.cls-1{fill:#10d58e;}.cls-2{fill:#fff;}</style></defs><title>plomeria</title><g id="Layer_2" data-name="Layer 2"><g id="Layer_1-2" data-name="Layer 1"><rect class="cls-1" width="20" height="20" rx="4" ry="4"/><path class="cls-2" d="M11.88,9.86l1.29-1.29a2.87,2.87,0,0,0,3.56-3.94.41.41,0,0,0-.66-.12L15,5.58A.42.42,0,0,1,14.42,5l1.07-1.06a.41.41,0,0,0-.12-.66,2.87,2.87,0,0,0-3.94,3.56L9.62,8.64,8.15,10.11,6.83,11.43a2.87,2.87,0,0,0-3.56,3.94.41.41,0,0,0,.66.12L5,14.42a.42.42,0,0,1,.59,0,.41.41,0,0,1,0,.58L4.51,16.07a.41.41,0,0,0,.12.66A2.8,2.8,0,0,0,5.86,17a2.87,2.87,0,0,0,2.71-3.84L9.7,12ZM7.8,12.78a.41.41,0,0,0-.08.47,2.05,2.05,0,0,1-1.86,2.94l-.28,0,.58-.58a1.24,1.24,0,0,0-1.75-1.75l-.58.58a2.05,2.05,0,0,1,2.92-2.14.41.41,0,0,0,.47-.08l5-5a.41.41,0,0,0,.08-.47,2.05,2.05,0,0,1,2.14-2.92l-.58.58a1.24,1.24,0,0,0,0,1.75,1.24,1.24,0,0,0,1.75,0l.58-.58a2.05,2.05,0,0,1-2.92,2.14.41.41,0,0,0-.47.08Z"/></g></g></svg>