<svg xmlns="http://www.w3.org/2000/svg" viewBox="0 0 20 20"><defs><style>.cls-1{fill:#10d58e;}.cls-2{fill:#fff;}</style></defs><title>refrigeracion</title><g id="Layer_2" data-name="Layer 2"><g id="Layer_1-2" data-name="Layer 1"><rect class="cls-1" width="20" height="20" rx="4" ry="4"/><path class="cls-2" d="M16.06,10.44l-2.74.73-1.05-.61V9.42l1-.6,2.75.74.17,0a.63.63,0,0,0,.61-.47.64.64,0,0,0-.45-.79l-1.5-.4,1.38-.8a.63.63,0,0,0,.24-.87A.64.64,0,0,0,15.64,6l-1.39.8.4-1.5a.64.64,0,0,0-.45-.79.65.65,0,0,0-.79.45l-.73,2.74-1,.6-1-.57V6.53l2-2a.64.64,0,1,0-.91-.91l-1.1,1.11V3.11a.64.64,0,0,0-1.28,0v1.6l-1.1-1.1a.64.64,0,0,0-.91.91l2,2V7.74l-1,.57-1-.6L6.59,5a.65.65,0,0,0-.79-.45.64.64,0,0,0-.45.79l.4,1.5L4.36,6a.64.64,0,0,0-.87.24.63.63,0,0,0,.24.87l1.38.8-1.5.4a.64.64,0,0,0-.45.79.63.63,0,0,0,.61.47l.17,0,2.75-.74,1,.6v1.14l-1.05.61-2.74-.73a.64.64,0,0,0-.78.45.64.64,0,0,0,.45.79l1.5.4-1.39.8a.64.64,0,0,0-.23.87.63.63,0,0,0,.55.32A.72.72,0,0,0,4.36,14l1.4-.81L5.35,14.7a.64.64,0,0,0,.45.78l.17,0A.65.65,0,0,0,6.59,15l.73-2.75,1-.61,1,.57v1.24l-2,2a.65.65,0,0,0,0,.91.67.67,0,0,0,.91,0l1.1-1.1v1.6a.64.64,0,0,0,1.28,0V15.28l1.1,1.11a.67.67,0,0,0,.91,0,.65.65,0,0,0,0-.91l-2-2V12.25l1-.58,1,.61L13.41,15a.65.65,0,0,0,.62.47l.17,0a.64.64,0,0,0,.45-.78l-.41-1.52,1.4.81a.72.72,0,0,0,.32.08.63.63,0,0,0,.55-.32.64.64,0,0,0-.23-.87l-1.39-.8,1.5-.4a.64.64,0,0,0,.45-.79.64.64,0,0,0-.78-.45ZM11,10.56l-1,.58-1-.58V9.42l1-.57,1,.57Z"/></g></g></svg>