<svg xmlns="http://www.w3.org/2000/svg" viewBox="0 0 20 20"><defs><style>.cls-1{fill:#10d58e;}.cls-2{fill:#fff;}</style></defs><title>servicio adicional</title><g id="Layer_2" data-name="Layer 2"><g id="Layer_1-2" data-name="Layer 1"><rect class="cls-1" width="20" height="20" rx="4" ry="4"/><path class="cls-2" d="M3.41,11c0,.3.16.88,1.15.88.54,0,1.13-.13,1.13-.71,0-.42-.41-.53-1-.67l-.58-.13c-.87-.21-1.72-.4-1.72-1.59,0-.61.33-1.67,2.08-1.67S6.6,8.24,6.6,8.9H5.52c0-.24-.12-.82-1.11-.82-.43,0-.94.16-.94.65s.34.52.57.57l1.32.32c.74.18,1.42.49,1.42,1.46,0,1.63-1.66,1.77-2.14,1.77-2,0-2.31-1.14-2.31-1.81Z"/><path class="cls-2" d="M10,7.15A2.53,2.53,0,0,1,12.6,10,2.53,2.53,0,0,1,10,12.85,2.52,2.52,0,0,1,7.4,10,2.52,2.52,0,0,1,10,7.15Zm0,4.74c.61,0,1.47-.38,1.47-1.89S10.61,8.11,10,8.11,8.53,8.49,8.53,10,9.39,11.89,10,11.89Z"/><path class="cls-2" d="M14.31,11c0,.3.16.88,1.14.88.54,0,1.14-.13,1.14-.71,0-.42-.41-.53-1-.67L15,10.41c-.88-.21-1.72-.4-1.72-1.59,0-.61.32-1.67,2.08-1.67A1.84,1.84,0,0,1,17.5,8.9H16.41c0-.24-.12-.82-1.11-.82-.43,0-.94.16-.94.65s.35.52.57.57l1.32.32c.74.18,1.42.49,1.42,1.46,0,1.63-1.66,1.77-2.13,1.77-2,0-2.32-1.14-2.32-1.81Z"/></g></g></svg>